<svg width="133" height="27" viewBox="0 0 133 27" fill="none" xmlns="http://www.w3.org/2000/svg">
<g clip-path="url(#clip0_934_1756)">
<path d="M20.9327 19.5009L4.02045 25.5C4.01346 25.4813 4.00693 25.4624 4 25.4436L4.01481 20.1861L13.4394 16.8431L20.9327 19.5009Z" fill="black"/>
<path d="M20.9852 13.8519L20.9859 14.1866C20.9905 14.1995 20.9953 14.2123 21 14.2251L20.9929 16.7217L21 19.1094C20.9931 19.1282 20.9865 19.1471 20.9795 19.1658L4.06735 13.1667L11.5606 10.5088L20.9852 13.8519Z" fill="black"/>
<path d="M21 1.55636L20.9852 6.8139L4.02045 12.8316C4.01342 12.8128 4.00696 12.7937 4 12.7749L4.0067 10.3872L4 7.8909C4.00472 7.87812 4.00916 7.86524 4.01375 7.85242L4.01481 7.5177L20.9795 1.5C20.9865 1.51873 20.9931 1.53761 21 1.55636Z" fill="black"/>
</g>
<path d="M36.58 20.126C35.704 20.126 34.912 19.976 34.204 19.676C33.508 19.376 32.956 18.944 32.548 18.38C32.14 17.816 31.93 17.15 31.918 16.382H34.618C34.654 16.898 34.834 17.306 35.158 17.606C35.494 17.906 35.95 18.056 36.526 18.056C37.114 18.056 37.576 17.918 37.912 17.642C38.248 17.354 38.416 16.982 38.416 16.526C38.416 16.154 38.302 15.848 38.074 15.608C37.846 15.368 37.558 15.182 37.21 15.05C36.874 14.906 36.406 14.75 35.806 14.582C34.99 14.342 34.324 14.108 33.808 13.88C33.304 13.64 32.866 13.286 32.494 12.818C32.134 12.338 31.954 11.702 31.954 10.91C31.954 10.166 32.14 9.518 32.512 8.966C32.884 8.414 33.406 7.994 34.078 7.706C34.75 7.406 35.518 7.256 36.382 7.256C37.678 7.256 38.728 7.574 39.532 8.21C40.348 8.834 40.798 9.71 40.882 10.838H38.11C38.086 10.406 37.9 10.052 37.552 9.776C37.216 9.488 36.766 9.344 36.202 9.344C35.71 9.344 35.314 9.47 35.014 9.722C34.726 9.974 34.582 10.34 34.582 10.82C34.582 11.156 34.69 11.438 34.906 11.666C35.134 11.882 35.41 12.062 35.734 12.206C36.07 12.338 36.538 12.494 37.138 12.674C37.954 12.914 38.62 13.154 39.136 13.394C39.652 13.634 40.096 13.994 40.468 14.474C40.84 14.954 41.026 15.584 41.026 16.364C41.026 17.036 40.852 17.66 40.504 18.236C40.156 18.812 39.646 19.274 38.974 19.622C38.302 19.958 37.504 20.126 36.58 20.126ZM52.4808 14.798C52.4808 15.158 52.4568 15.482 52.4088 15.77H45.1188C45.1788 16.49 45.4308 17.054 45.8748 17.462C46.3188 17.87 46.8648 18.074 47.5128 18.074C48.4488 18.074 49.1148 17.672 49.5108 16.868H52.2288C51.9408 17.828 51.3888 18.62 50.5728 19.244C49.7568 19.856 48.7548 20.162 47.5668 20.162C46.6068 20.162 45.7428 19.952 44.9748 19.532C44.2188 19.1 43.6248 18.494 43.1928 17.714C42.7728 16.934 42.5627 16.034 42.5627 15.014C42.5627 13.982 42.7728 13.076 43.1928 12.296C43.6128 11.516 44.2008 10.916 44.9568 10.496C45.7128 10.076 46.5828 9.866 47.5668 9.866C48.5148 9.866 49.3608 10.07 50.1048 10.478C50.8608 10.886 51.4428 11.468 51.8508 12.224C52.2708 12.968 52.4808 13.826 52.4808 14.798ZM49.8708 14.078C49.8588 13.43 49.6248 12.914 49.1688 12.53C48.7128 12.134 48.1548 11.936 47.4948 11.936C46.8708 11.936 46.3428 12.128 45.9108 12.512C45.4908 12.884 45.2328 13.406 45.1368 14.078H49.8708ZM56.8401 6.68V20H54.3201V6.68H56.8401ZM68.5999 14.798C68.5999 15.158 68.5759 15.482 68.5279 15.77H61.2379C61.2979 16.49 61.5499 17.054 61.9939 17.462C62.4379 17.87 62.9839 18.074 63.6319 18.074C64.5679 18.074 65.2339 17.672 65.6299 16.868H68.3479C68.0599 17.828 67.5079 18.62 66.6919 19.244C65.8759 19.856 64.8739 20.162 63.6859 20.162C62.7259 20.162 61.8619 19.952 61.0939 19.532C60.3379 19.1 59.7439 18.494 59.3119 17.714C58.8919 16.934 58.6819 16.034 58.6819 15.014C58.6819 13.982 58.8919 13.076 59.3119 12.296C59.7319 11.516 60.3199 10.916 61.0759 10.496C61.8319 10.076 62.7019 9.866 63.6859 9.866C64.6339 9.866 65.4799 10.07 66.2239 10.478C66.9799 10.886 67.5619 11.468 67.9699 12.224C68.3899 12.968 68.5999 13.826 68.5999 14.798ZM65.9899 14.078C65.9779 13.43 65.7439 12.914 65.2879 12.53C64.8319 12.134 64.2739 11.936 63.6139 11.936C62.9899 11.936 62.4619 12.128 62.0299 12.512C61.6099 12.884 61.3519 13.406 61.2559 14.078H65.9899ZM69.7913 15.014C69.7913 13.982 70.0013 13.082 70.4213 12.314C70.8413 11.534 71.4233 10.934 72.1673 10.514C72.9113 10.082 73.7633 9.866 74.7233 9.866C75.9593 9.866 76.9793 10.178 77.7833 10.802C78.5993 11.414 79.1453 12.278 79.4213 13.394H76.7033C76.5593 12.962 76.3133 12.626 75.9653 12.386C75.6293 12.134 75.2093 12.008 74.7053 12.008C73.9853 12.008 73.4153 12.272 72.9953 12.8C72.5753 13.316 72.3653 14.054 72.3653 15.014C72.3653 15.962 72.5753 16.7 72.9953 17.228C73.4153 17.744 73.9853 18.002 74.7053 18.002C75.7253 18.002 76.3913 17.546 76.7033 16.634H79.4213C79.1453 17.714 78.5993 18.572 77.7833 19.208C76.9673 19.844 75.9473 20.162 74.7233 20.162C73.7633 20.162 72.9113 19.952 72.1673 19.532C71.4233 19.1 70.8413 18.5 70.4213 17.732C70.0013 16.952 69.7913 16.046 69.7913 15.014ZM84.2014 12.098V16.922C84.2014 17.258 84.2794 17.504 84.4354 17.66C84.6034 17.804 84.8794 17.876 85.2634 17.876H86.4334V20H84.8494C82.7254 20 81.6634 18.968 81.6634 16.904V12.098H80.4754V10.028H81.6634V7.562H84.2014V10.028H86.4334V12.098H84.2014ZM97.5159 14.798C97.5159 15.158 97.4919 15.482 97.4439 15.77H90.1539C90.2139 16.49 90.4659 17.054 90.9099 17.462C91.3539 17.87 91.8999 18.074 92.5479 18.074C93.4839 18.074 94.1499 17.672 94.5459 16.868H97.2639C96.9759 17.828 96.4239 18.62 95.6079 19.244C94.7919 19.856 93.7899 20.162 92.6019 20.162C91.6419 20.162 90.7779 19.952 90.0099 19.532C89.2539 19.1 88.6599 18.494 88.2279 17.714C87.8079 16.934 87.5979 16.034 87.5979 15.014C87.5979 13.982 87.8079 13.076 88.2279 12.296C88.6479 11.516 89.2359 10.916 89.9919 10.496C90.7479 10.076 91.6179 9.866 92.6019 9.866C93.5499 9.866 94.3959 10.07 95.1399 10.478C95.8959 10.886 96.4779 11.468 96.8859 12.224C97.3059 12.968 97.5159 13.826 97.5159 14.798ZM94.9059 14.078C94.8939 13.43 94.6599 12.914 94.2039 12.53C93.7479 12.134 93.1899 11.936 92.5299 11.936C91.9059 11.936 91.3779 12.128 90.9459 12.512C90.5259 12.884 90.2679 13.406 90.1719 14.078H94.9059ZM98.7073 14.978C98.7073 13.97 98.9053 13.076 99.3013 12.296C99.7093 11.516 100.261 10.916 100.957 10.496C101.653 10.076 102.427 9.866 103.279 9.866C103.927 9.866 104.545 10.01 105.133 10.298C105.721 10.574 106.189 10.946 106.537 11.414V6.68H109.093V20H106.537V18.524C106.225 19.016 105.787 19.412 105.223 19.712C104.659 20.012 104.005 20.162 103.261 20.162C102.421 20.162 101.653 19.946 100.957 19.514C100.261 19.082 99.7093 18.476 99.3013 17.696C98.9053 16.904 98.7073 15.998 98.7073 14.978ZM106.555 15.014C106.555 14.402 106.435 13.88 106.195 13.448C105.955 13.004 105.631 12.668 105.223 12.44C104.815 12.2 104.377 12.08 103.909 12.08C103.441 12.08 103.009 12.194 102.613 12.422C102.217 12.65 101.893 12.986 101.641 13.43C101.401 13.862 101.281 14.378 101.281 14.978C101.281 15.578 101.401 16.106 101.641 16.562C101.893 17.006 102.217 17.348 102.613 17.588C103.021 17.828 103.453 17.948 103.909 17.948C104.377 17.948 104.815 17.834 105.223 17.606C105.631 17.366 105.955 17.03 106.195 16.598C106.435 16.154 106.555 15.626 106.555 15.014ZM123.548 17.606H118.544L117.716 20H115.07L119.588 7.418H122.522L127.04 20H124.376L123.548 17.606ZM122.864 15.59L121.046 10.334L119.228 15.59H122.864ZM131.248 7.436V20H128.728V7.436H131.248Z" fill="black"/>
<defs>
<clipPath id="clip0_934_1756">
<rect width="24" height="24" fill="white" transform="translate(0 1.5)"/>
</clipPath>
</defs>
</svg>
